<svg xmlns="http://www.w3.org/2000/svg" viewBox="0 0 863.21 248.16"><defs><style>.cls-1{fill:#fff;}</style></defs><g id="Layer_2" data-name="Layer 2"><g id="Layer_1-2" data-name="Layer 1"><path class="cls-1" d="M6.4,143.17c1.26-5.84,6.15-16.51,16.52-26.81-2.38.41-4.78.74-7.19,1a11.82,11.82,0,0,1,0-1.57c.92-1,1.85-2,2.79-3a1,1,0,0,0,.31-.51c.06-.51-.53-1.19-.8-1.6a6.18,6.18,0,0,1-.93-1.78c-.26-1,.05-2-.14-3a14.21,14.21,0,0,0-1.11-2.9l-4.14.18a53.94,53.94,0,0,1,6.77-3.83c-1.48-.55-3-1.1-4.46-1.64-.11-1.24.34-2.06,1.9-1.9,2.24.22,5.4,2.57,7.34,3.53q3.75,1.86,7.44,3.77a9,9,0,0,1,3.39,2.49,4,4,0,0,1,.59,1.2A94.69,94.69,0,0,1,62.05,94.21q4.65-1.32,9.34-2.45c-1.43.12-2.86.26-4.28.45-.56.08-1.25.13-1.94.24,0-2.23.31-4.5.5-6.74,0-.65.09-1.32.1-2q2.2-1.42,4.44-2.83c-.52.33-3.09-6.46-5.23-8.87a17.44,17.44,0,0,0,2.49-4.75A57.22,57.22,0,0,1,61.33,70a60.1,60.1,0,0,1,10.36-9.29,51,51,0,0,0-4.75-3.86c-.54-1.09-1.77-2.5-.52-3.52,3.46,1.92,6.19,4.56,9.84,6.39a51.54,51.54,0,0,0,5.8,2.47c1.6.57,4.38.82,5.69,1.67s.69,2.81-.33,4S85.09,70.56,85.61,72c.45,1.23,2.12,1.87,2.74,3.06s.1,2.4-.37,3.56Q86,83.66,84,88.73l-.12.32a383.69,383.69,0,0,1,66.76-6.5c.37,0,40.39-.23,79.77,9.34.6-.21,1.2-.41,1.82-.58h0l-.44-.06a12.28,12.28,0,0,1-4.6-1,3.23,3.23,0,0,1-1.54-4.13,8.7,8.7,0,0,1,1.93-2c.75-.68,1.46-1.42,2.18-2.13a14.62,14.62,0,0,0,1.56-1.59c.34-.45.88-1.33.59-1.9-.22-1.08-1.29-1.94-2.16-2.69a33,33,0,0,1-4.47-4.7c-.69-.91-.08-2.24.32-3.15a12.21,12.21,0,0,1,2.14-3.17,32.93,32.93,0,0,0,3.3-3.83,8.12,8.12,0,0,0,1.26-3.43c.13-1,.2-2.35-.76-3.15a16.6,16.6,0,0,0-5.82-2.63c-.42-.12-.86-.19-1.27-.27q3.24-1.1,6.54-2.14a27.72,27.72,0,0,1-.75-3.38,20.78,20.78,0,0,1,.19-6.75,23.35,23.35,0,0,1,4.44-2.92,26.46,26.46,0,0,1-2.38-3c.52-.92,1.37-1.93,2.81-1.47s1.52,3.51,1.81,4.48a173,173,0,0,0,8.36,21.95c2.73,6,5.84,11.91,10.32,17.08,3.34,3.84,7.5,7.42,8.76,12,1,3.71.08,7.76,1.92,11.21.94,1.75,2.59,3.57,1.88,5.38a3.77,3.77,0,0,1-2.81,2,81.36,81.36,0,0,1,13.08,10.58c1-.11,2-.22,3-.36.28,0,.26-1.57.27-1.77a9,9,0,0,0,0-2.08,3.58,3.58,0,0,1,0-1.75,12.32,12.32,0,0,1,.93-1.66,25.9,25.9,0,0,0,1.69-3.72l0-.09c-1.59-.53-3.37-1.3-4.83-1.09,1.37-.52,2.77-1,4.18-1.42,1.56-.47,3.15-.88,4.75-1.25a2.65,2.65,0,0,0-.32-1.06c-.36-.59-.59-1.54-1-2.31l0-.08c1.37-2.89,2.16-2.11,2.62.66q1.35,8,2.42,16.07c.31,2.3.52,4.81-.94,6.7s-3.93,2.48-6.43,2.42c5.94,7.72,9,14.92,9.93,19.35a25.47,25.47,0,0,1,4.58,1.15c-7.05-19.73-6-53.71-11.47-51.87-4.21,1.4-17.2,7.4-17.15,7.44a6.75,6.75,0,0,1-2.58-5.38C268.55,82,263.77,80,260,76.24c-7.4-7.7-17.17-25.93-19-36.8-1.58-10.87-5.68-15-14.93-8.24C215.3,38.8,192.63,57,192.85,57.11c0,0-4.68-3.21-5.7-6-5.51-15.13-22.7-19.58-31.78-31.74S137.74-5.47,127.69,2.48C117.14,10.26,94.25,42.2,91.62,52.85c-1.83,6-4.48,8.69-4.48,8.69a37.56,37.56,0,0,1-6.38-3.17c-6.42-4.07-11-11.12-18-8.79S46.68,67.83,39.57,82.65s-8.64,17.74-8.71,17.73-5.72-3-14.35-7.25S7.65,103,2.42,115.82c-4.25,10.48-1.82,23.92-.8,28.57A26.2,26.2,0,0,1,6.4,143.17ZM133.78,5.75A4.31,4.31,0,0,1,134.71,3c3.1-2.75,8.15,5.68,9.08,7.31,4.78,8,9.66,16.49,18.68,21.78,4.6,2.7,9.4,4.9,12.86,8.47,4.52,4.69,5.56,10,11.43,15.26,1.07,1,2.44,1.53,2.51,2.83.06,1-.44,1.49-1.43,2.1-7.85,4.79-19.32,3.94-27,8.85,1.9-2.24,4-4.37,6.11-6.47q-4.54.95-9,2.05-3.93,1-7.79,2.07l-.24.07q-1.59-2.64-3.23-5.27c-3.47,1.33-6.89,2.75-10.23,4.25,2.81-3.15,5.64-6.31,8.46-9.49,0-1.1.27-2.2.36-3.29a21.05,21.05,0,0,0-1.61-8.9,77,77,0,0,0-3.24-7.28c2.13-1.38,4.07-2.41,7-4-1.89.54-7.76-3.53-11.51-5,.15-1,.31-2,.46-3a2.49,2.49,0,0,0,0-1.3,3.26,3.26,0,0,0-1-1.12c-.78-.66-1.57-1.31-2.36-2,1-1.16,1.65-2.78,3.75-4.13a11.74,11.74,0,0,0-3.82-.86c.16-1.39.33-2.78.5-4.17a39.55,39.55,0,0,0-7.7-1.74A49,49,0,0,0,133.78,5.75Z"/><path class="cls-1" d="M286,119.94c-1.68-.31-3.43-.72-5.19-1.08.63.67,1.22,1.35,1.8,2l.2-.06C283.52,120.62,285.24,119.8,286,119.94Z"/><path class="cls-1" d="M262.39,104.05c.41-.08.81-.14,1.22-.18-1-.36-2.1-.67-3.18-1C261.1,103.29,261.75,103.67,262.39,104.05Z"/><path class="cls-1" d="M243,93.75c-1.2.13-2.39.33-3.58.5,3.33,1,6.46,2,9.44,3.2,1.79-1.55,3.5-3.37,6.33-4.38-2,.19-4,.34-6,.42S245,93.53,243,93.75Z"/><path class="cls-1" d="M27.66,151.16c-.3,5.05.12,10.18.26,15.58s.08,10.61.12,15.95c0,2.67,0,5.35.05,8a71.2,71.2,0,0,0,.24,7.75,13.93,13.93,0,0,0,2.47,6.42,17.13,17.13,0,0,0,5.29,4.72l.79.47c.18.12.57.3.84.45.6.3,1.21.64,1.8.92,1.19.57,2.36,1.14,3.59,1.7,2.44,1.13,4.92,2.21,7.4,3.27,5,2.12,10,4.15,15.1,6.06s10.2,3.72,15.32,5.24c1.28.4,2.54.68,3.8,1l1.84.36c.31.06.53,0,.8.08l.39,0,.2,0H88c1.65,0,3.71-1.37,5.63-3a95.21,95.21,0,0,0,10.87-11.54c3.47-4.15,6.88-8.41,10.47-12.57l5.33-6.12c1.76-2,3.52-4.13,5.46-6.18a32.94,32.94,0,0,1,6.76-5.64,25.44,25.44,0,0,1,8.39-3.16,45.93,45.93,0,0,1,8.47-.83l1,0H151l.5,0,2,0c1.36.08,2.85.15,4.25.36a28.85,28.85,0,0,1,8.41,2.25,26.86,26.86,0,0,1,7.23,4.9c4.1,3.86,7.21,7.95,10.6,11.72,6.92,7.74,13,15.93,19.56,22.87a44.06,44.06,0,0,0,5.09,4.68c1.69,1.33,3.67,2.32,4.75,2.17l.9-.07.45,0,.37-.08,1.46-.28c1.08-.28,2.21-.54,3.32-.86,2.23-.63,4.45-1.34,6.65-2.07,8.79-3,17.28-6.36,25.35-9.81,4-1.74,8-3.5,11.67-5.39l.69-.36.6-.35c.44-.27,1-.55,1.32-.81l1.1-.78,1.07-.89a14.88,14.88,0,0,0,3.3-4.21,15.42,15.42,0,0,0,1.49-5.06c.1-.9.15-1.81.17-2.76s0-2,0-2.95c0-3.92.06-7.76.08-11.5s.06-7.39.08-10.93.18-7.1.31-10.37c.28-6.59,0-12.67-1.47-18a31.52,31.52,0,0,0-7.19-13,40.37,40.37,0,0,0-9.62-7.55,64.53,64.53,0,0,0-8.32-3.94c-2.35-.88-4.18-1.51-5.43-1.88l-1.89-.58-7.58-2c-4.94-1.16-12.22-2.9-21.64-4.44s-20.91-3.12-34.18-4.09c-6.63-.5-13.7-.9-21.15-1.1-3.73-.13-7.51-.06-11.44.09s-7.91.34-12,.61a390.11,390.11,0,0,0-52.34,6.75c-2.3.44-4.59,1-6.89,1.52l-3.48.79-3.46.92a90.3,90.3,0,0,0-13.68,4.45,49.46,49.46,0,0,0-12.38,7.35,35.94,35.94,0,0,0-5,5.14,32.4,32.4,0,0,0-3.73,6.16A39.32,39.32,0,0,0,27.66,151.16ZM68.4,123.31c37.39-9.69,81.81-9.8,82.25-9.8s44.86.11,82.25,9.8c34.31,8.88,33.62,24.86,33.07,37.71-.06,1.58-.13,3.08-.13,4.53v22.73c0,3.52,0,10.84-9.74,15.81-9.53,4.86-38.42,16.77-45.71,16.77-5.21,0-10.62-6.73-16.88-14.53-3-3.77-6.16-7.66-9.54-11.18-10.15-10.54-17.46-16.94-33.32-16.94s-23.16,6.4-33.31,16.94c-3.39,3.52-6.52,7.41-9.54,11.18-6.26,7.8-11.67,14.53-16.89,14.53-7.28,0-36.17-11.91-45.7-16.77-9.75-5-9.75-12.29-9.75-15.81V165.55c0-1.45-.06-3-.13-4.53C34.78,148.17,34.09,132.19,68.4,123.31Z"/><path class="cls-1" d="M16.32,221.17c9.27,2.47,12.77,3.29,12.77,3.29S33.21,229.61,53,237s28,9.95,28.85,10.1,17.51,1,25.54,1,13.19-6,19.78-16.07,15.66-21.23,23.49-21.23,16.9,11.13,23.49,21.23,11.74,16.07,19.78,16.07,24.68-.93,25.55-1,9.06-2.68,28.84-10.1,23.9-12.57,23.9-12.57,3.51-.82,12.78-3.29,16.07-7.42,16.07-13.4V149.16c0-2.27-8.86-3.3-8.86-3.3,0-5.46-11.75-36.78-53.78-48.73s-87.77-11.54-87.77-11.54-45.74-.41-87.77,11.54S9.11,140.4,9.11,145.86c0,0-8.86,1-8.86,3.3v58.61C.25,213.75,7,218.69,16.32,221.17Zm-4.7-47.39c0-1.73.08-3.43.11-5.08.09-3.29.22-6.37.38-9,.29-5.28.7-8.79.7-8.79s.42,3.51.71,8.79c.16,2.63.29,5.71.38,9,0,1.65.1,3.35.11,5.08s0,3.49,0,5.25,0,3.52,0,5.25-.08,3.43-.11,5.08c-.08,3.29-.22,6.37-.38,9-.29,5.27-.71,8.78-.71,8.78s-.41-3.51-.71-8.78c-.16-2.64-.29-5.72-.37-9,0-1.65-.11-3.35-.11-5.08s0-3.49,0-5.25S11.61,175.51,11.62,173.78Zm15.8-38.56a35.61,35.61,0,0,1,4.29-6.86,39.49,39.49,0,0,1,5.64-5.63A53.12,53.12,0,0,1,50.72,115a98.25,98.25,0,0,1,14.19-4.44l3.53-.89,3.52-.78c2.34-.51,4.66-1,7-1.46a392.85,392.85,0,0,1,52.79-6.29q6.16-.34,12.08-.5c3.92-.11,7.82-.14,11.57,0,7.5.2,14.61.59,21.28,1.09s12.89,1.13,18.64,1.81,11,1.38,15.77,2.13c9.5,1.45,16.89,3.13,21.95,4.26l7.62,1.93h0l2,.58c1.3.35,3.2,1,5.66,1.86a69.56,69.56,0,0,1,8.81,4,43.46,43.46,0,0,1,10.51,8,34.83,34.83,0,0,1,8.19,14.35c1.73,5.82,2.07,12.36,1.88,19.08-.09,3.39-.22,6.73-.15,10.26s.05,7.19.07,10.93.06,7.58.09,11.5c0,1,0,2,0,3s0,2.12-.15,3.22a18.75,18.75,0,0,1-6.09,12.19L270.14,212l-1.47,1.06c-.5.36-.92.58-1.39.87l-.76.46-.73.39c-3.88,2.08-7.85,3.9-11.92,5.72-8.16,3.61-16.65,7.11-25.62,10.29-2.25.78-4.53,1.54-6.88,2.24-1.17.36-2.38.66-3.61,1l-2.08.41a6.47,6.47,0,0,1-1,.14l-.9.09a9.77,9.77,0,0,1-4.86-1,19.79,19.79,0,0,1-3.6-2.18,48.8,48.8,0,0,1-5.82-5.21c-7-7.36-13-15.45-19.81-23-3.47-3.85-6.71-8-10.23-11.26a21,21,0,0,0-5.69-3.85,22.84,22.84,0,0,0-6.79-1.76,15.62,15.62,0,0,0-1.81-.18c-.61,0-1.17-.11-1.84-.12l-2-.05h-.92l-1,0a41.67,41.67,0,0,0-7.41.68,19.64,19.64,0,0,0-6.57,2.42,26.73,26.73,0,0,0-5.59,4.66c-1.78,1.85-3.51,3.88-5.29,5.92l-5.37,6.11c-3.51,4-6.92,8.26-10.47,12.45a100.79,100.79,0,0,1-11.64,12.2,26.37,26.37,0,0,1-3.79,2.62,15.46,15.46,0,0,1-2.32,1,10.45,10.45,0,0,1-2.7.51h-.47l-.32,0-.63-.05c-.41,0-.87-.07-1.23-.14l-2.19-.44c-1.39-.36-2.79-.69-4.12-1.12-5.38-1.61-10.54-3.54-15.67-5.54s-10.21-4.11-15.23-6.32c-2.51-1.11-5-2.23-7.5-3.42-1.24-.57-2.5-1.21-3.75-1.84-.63-.31-1.21-.63-1.82-.95-.32-.18-.54-.28-.94-.52l-1-.58a21.88,21.88,0,0,1-6.65-6.12,18.75,18.75,0,0,1-3.21-8.56,32.26,32.26,0,0,1-.2-4.32l0-4c0-2.68,0-5.36.05-8,0-5.32.06-10.63.09-15.89s-.42-10.53,0-15.89A43.18,43.18,0,0,1,27.42,135.22ZM155.08,91.44c1.35,0,2.69.09,4,.13l8,.28c1.32.06,2.64.07,3.94.16l3.91.33,7.65.64,3.73.32,3.64.48,7.05,1c2.28.34,4.52.54,6.65,1l6.18,1.17c4,.78,7.59,1.37,10.77,2.18l8.21,2.07L236,103l-7.28-1.15-8.32-1.41c-1.6-.31-3.32-.49-5.14-.72l-5.7-.75c-4-.52-8.25-1.13-12.83-1.49l-7-.66L186,96.46l-3.7-.23-7.6-.44c-2.57-.16-5.16-.32-7.79-.36L159,95.21c-1.33,0-2.66-.09-4-.09l-4,0h-8c-2.65,0-5.29.17-7.92.24s-5.22.14-7.79.29l-7.59.46c-1.25.08-2.49.14-3.71.24l-3.63.31-7,.59L98.76,98l-3.16.33-3,.4-5.7.74-5.13.76c-3.22.48-6,1-8.32,1.36s-4.12.73-5.35,1l-1.88.39s2.53-.87,7.07-2.1c2.27-.58,5-1.34,8.22-2l5.09-1.13,5.68-1.08c4-.8,8.27-1.38,12.84-2.1l7-.88c2.4-.32,4.87-.58,7.38-.77l7.65-.65c2.58-.22,5.21-.3,7.85-.42s5.31-.29,8-.31l8.05-.08ZM289.61,159.7c.16,2.63.29,5.71.38,9,0,1.65.1,3.35.1,5.08s0,3.49.05,5.25,0,3.52,0,5.25-.08,3.43-.11,5.08c-.09,3.29-.22,6.37-.38,9-.29,5.27-.71,8.78-.71,8.78s-.41-3.51-.71-8.78c-.16-2.64-.29-5.72-.38-9,0-1.65-.1-3.35-.1-5.08s0-3.49,0-5.25,0-3.52,0-5.25.07-3.43.11-5.08c.08-3.29.22-6.37.38-9,.29-5.28.7-8.79.7-8.79S289.32,154.42,289.61,159.7Zm-23.42,59.6c-.85.55-1.81,1.17-2.87,1.82-2.14,1.27-4.69,2.68-7.48,4s-5.85,2.67-8.91,3.93-6.2,2.33-9.16,3.26-5.74,1.74-8.14,2.35c-4.81,1.24-8.1,1.72-8.1,1.72s3.06-1.28,7.66-3.07L246,226.78l4.54-1.81c1.48-.65,3-1.19,4.38-1.8s2.79-1.15,4.08-1.73l3.64-1.58c1.11-.52,2.15-1,3.07-1.39s1.69-.8,2.35-1.1c1.31-.61,2.07-.94,2.07-.94s-.65.5-1.82,1.36C267.74,218.21,267,218.77,266.19,219.3ZM71.69,234.69c-2.4-.61-5.19-1.39-8.14-2.35s-6.06-2.08-9.16-3.26-6.12-2.55-8.91-3.93-5.34-2.76-7.48-4c-1.06-.65-2-1.27-2.87-1.82s-1.55-1.09-2.14-1.51c-1.17-.86-1.82-1.36-1.82-1.36s.76.33,2.07.94c.66.3,1.43.7,2.35,1.1s2,.87,3.07,1.39l3.64,1.58c1.29.58,2.68,1.1,4.08,1.73s2.9,1.15,4.38,1.8l4.54,1.81,16.83,6.56c4.6,1.79,7.66,3.07,7.66,3.07S76.5,235.93,71.69,234.69Z"/><path class="cls-1" d="M244.74,179.49q-.36,14-.53,28,2.28-1,4.31-1.88.27-15.75.69-31.5.56-21,1.45-42-1.89-1.09-4.13-2.13Q245.41,154.72,244.74,179.49Z"/><path class="cls-1" d="M230.26,190.09q-.62,11.73-1.12,23.46c2.35-.88,4.75-1.81,7.12-2.77q.41-15.65,1-31.29,1.07-26.09,2.83-52.08c-2.1-.73-4.39-1.42-6.86-2.09C232.52,146.92,231.39,168.52,230.26,190.09Z"/><path class="cls-1" d="M51.4,164.39c-1.48,13-2.44,26.09-2.92,39.24,1.46.69,3.17,1.47,5.05,2.31a385.49,385.49,0,0,1,.17-41.07c.68-11.87,1.84-23.94,3.57-36l-.4.17C54.61,140.73,52.75,152.5,51.4,164.39Z"/><path class="cls-1" d="M264,188.28V165.55c0-1.49.06-3,.13-4.61.3-7,.61-14.48-4.49-21.24q-.12,17.82-.11,35.63,0,12.06.13,24.11C264,195.47,264,191,264,188.28Z"/><path class="cls-1" d="M59.66,166c-1,14-1.39,28.05-1.06,42.13,12,5.08,27.5,10.87,32.31,10.87,4.33,0,9.73-6.72,15.44-13.83,3.05-3.8,6.21-7.73,9.65-11.3,10.49-10.9,18.06-17.52,34.65-17.52s24.16,6.62,34.65,17.52c.55.56,1.07,1.15,1.61,1.73.16-1.84.32-3.67.49-5.51,2.18-23.93,5-47.87,8.37-71.67a420.41,420.41,0,0,0-45.12-3c-.44,0-44.63.11-81.79,9.73-1.56.41-3,.83-4.45,1.26C62.22,139.49,60.65,152.73,59.66,166Z"/><path class="cls-1" d="M37.18,160.94c.07,1.6.14,3.12.14,4.61v22.73c0,2.89,0,7.9,5.42,12.07a430.84,430.84,0,0,1,5.75-66.91C36.36,141.56,36.79,151.69,37.18,160.94Z"/><path class="cls-1" d="M371.3,94.65,368,104.49H350.75l20-52.8h22.37l21.28,52.8H395.93l-3.58-9.84Zm17.06-12.22c-3.45-9.5-5.44-15.51-6.76-19.93h-.26c-1.15,4.37-3.49,11.86-6.3,19.93Z"/><path class="cls-1" d="M419.56,104.49V49h16.68v55.46Z"/><path class="cls-1" d="M462.14,101.48v18.8H445.51V75.93c0-3.57,0-7.48-.11-10.8h16.39a38.7,38.7,0,0,1,.32,4.5c2.31-2.84,5.93-5.55,13.18-5.55,9.75,0,18.09,8,18.09,20,0,14.21-10.1,21.5-20,21.5C467.3,105.54,464,103.5,462.14,101.48Zm14.15-16.69c0-5.53-2.45-9.45-7.2-9.45-5.38,0-7.33,3.6-7.33,9.5s2.28,9.37,7.18,9.37S476.29,90.52,476.29,84.79Z"/><path class="cls-1" d="M500.63,49h16.69V59.7H500.63Zm0,16.1h16.69v39.36H500.63Z"/><path class="cls-1" d="M526.53,75.36c0-3.43,0-7.66-.07-10.23h16.38c.18,1.08.3,3.21.38,4.35,1.8-2.3,5.44-5.4,12.84-5.4,9.93,0,15.45,6,15.45,16.13v24.28H554.7V81.81c0-3.55-1.31-6.47-5.33-6.47s-6.1,2.58-6.1,8.58v20.57H526.53Z"/><path class="cls-1" d="M595.24,88.41c.2,3.92,2.62,6.85,7.13,6.85,3.77,0,5.33-1.2,6.37-3h16.1c-2.24,6.69-7.65,13.32-22.6,13.32-17.9,0-23.55-10.68-23.55-20.78,0-10.84,7.2-20.68,23.47-20.68,16.69,0,23.08,10.65,23.08,20.83,0,.69,0,2.62,0,3.5ZM609,80c-.15-2.91-1.44-6.18-6.64-6.18-5,0-6.78,2.7-7,6.18Z"/><path class="cls-1" d="M698.47,83.49H670.25V92.3H701.8l-2,12.19H653.34V51.69H700V63.91H670.25v7.36h28.22Z"/><path class="cls-1" d="M754.55,49V92.37c0,4,0,8.89.1,12.12H738.19c-.17-1.1-.27-2.75-.35-4-2.57,3.14-5.38,5.1-12.53,5.1C714.05,105.57,706.6,97,706.6,85c0-13.24,9.75-20.9,19.89-20.9,7,0,10.07,2.17,11.3,3.58V49ZM723.69,84.81c0,5.51,2.54,9.48,7.39,9.48s7.22-3.57,7.22-9.5-1.92-9.42-7.17-9.42C726.09,75.37,723.69,79.64,723.69,84.81Z"/><path class="cls-1" d="M809.63,100.18c0,14.34-7.14,21.13-24.58,21.13-19,0-22.22-9.34-22.87-13.94h16.46c.7,2,2.33,3.73,7.06,3.73,5.56,0,7.34-3.52,7.34-9.07V99.68c-2.25,2.77-5.15,5-12.53,5-11.39,0-18.58-8.82-18.58-19.49,0-12.33,8.42-21.08,19.58-21.08,7.77,0,10.5,2.79,11.56,5,.07-1.22.15-3,.22-3.9h16.44c-.05,2.94-.1,7.37-.1,11.86ZM779,84.65c0,4.71,2.22,8.79,7.24,8.79s7.29-3.17,7.29-9.16c0-5.33-2.08-8.94-7.07-8.94C781.77,75.34,779,78.86,779,84.65Z"/><path class="cls-1" d="M833.21,88.41c.2,3.92,2.62,6.85,7.13,6.85,3.77,0,5.33-1.2,6.37-3h16.1c-2.24,6.69-7.65,13.32-22.6,13.32-17.9,0-23.55-10.68-23.55-20.78,0-10.84,7.2-20.68,23.47-20.68,16.69,0,23.08,10.65,23.08,20.83,0,.69,0,2.62-.05,3.5ZM846.93,80c-.15-2.91-1.44-6.18-6.64-6.18-5,0-6.78,2.7-7,6.18Z"/><path class="cls-1" d="M364.1,179c1.17,3.69,4,6.47,11.32,6.47,6.45,0,8.46-1.94,8.46-4.73,0-3-1.8-4.7-12.27-6.52-20.63-3.61-23.6-10.65-23.6-18,0-11.05,10.4-17.49,25.66-17.49,18.57,0,26,8.59,26.75,16.85H382.78c-.63-2.48-2.21-5.34-9.14-5.34-4.92,0-7.24,1.6-7.24,4.22s2.33,3.78,11,5.36c21.11,3.78,25.2,10.41,25.2,18.81,0,10.66-9,18.41-27.93,18.41-18.73,0-27.07-7.94-28.74-18Z"/><path class="cls-1" d="M410.74,165c0-3.63,0-8.11-.08-10.82H428c.19,1.14.32,3.39.4,4.59,1.9-2.42,5.75-5.7,13.59-5.7,10.49,0,16.34,6.35,16.34,17.06v25.69H440.54v-24c0-3.76-1.39-6.84-5.64-6.84s-6.46,2.73-6.46,9.08v21.76h-17.7Z"/><path class="cls-1" d="M516.84,174.93c0,13.14-9.08,22-25.94,22-17.51,0-25-11-25-21.9,0-11.73,8.3-22,25.52-22C509,153.06,516.84,164.57,516.84,174.93Zm-33,0c0,6.56,2.48,10.91,7.55,10.91s7.39-4.3,7.39-10.62-2-11-7.47-11C486.16,164.15,483.8,168.28,483.8,174.91Z"/><path class="cls-1" d="M538.11,154.17c3.56,18.61,4.41,24.52,5,29.13h.22c1.11-5.18,2.3-11.49,6.45-29.13h16.09c4.22,18.55,5.28,24.25,6,28.84h.22c.6-4.54,1.61-11.6,5.15-28.84h17.31l-12.88,41.64h-19c-3.19-12.92-4.37-18.68-5.53-24.1H557c-.91,4.39-3,13.41-5.94,24.1H531.84l-12.25-41.64Z"/><path class="cls-1" d="M600.15,137.13H617.8v20.92c2.07-2.22,5.72-5,13.15-5,10.81,0,19.84,8,19.84,21.11,0,14.63-9.5,22.75-20.85,22.75-7.37,0-10.93-2.45-13-5.21-.06,1-.14,3.17-.27,4.1H600c.08-5.23.11-9,.11-13.58Zm32.57,37.67c0-5.64-2.28-9.83-7.61-9.83-5.61,0-7.76,3.9-7.76,9.91,0,5.45,2.14,10.05,7.55,10.05S632.72,180.83,632.72,174.8Z"/><path class="cls-1" d="M707.21,174.93c0,13.14-9.08,22-25.94,22-17.52,0-25-11-25-21.9,0-11.73,8.3-22,25.52-22C699.35,153.06,707.21,164.57,707.21,174.93Zm-33,0c0,6.56,2.48,10.91,7.55,10.91s7.38-4.3,7.38-10.62-2-11-7.46-11C676.52,164.15,674.17,168.28,674.17,174.91Z"/><path class="cls-1" d="M759.41,182.75c0,6.25.3,12.27.41,13.06h-16.3a33.51,33.51,0,0,1-.54-4.26c-2.55,3.47-7.26,5.37-14.59,5.37-10.58,0-16-6.13-16-13.5,0-10.49,9-14.1,22.63-14.1,3,0,6,0,7.51,0V168c0-2.85-1.1-4.9-5.72-4.9-4.27,0-5.24,1.75-5.64,3.67H714.73c.26-5.11,3.8-13.7,22.09-13.7,19.68,0,22.59,8.68,22.59,15.65Zm-16.85-4.58c-.77-.06-2.93-.08-6.35-.08-5,0-7,1.5-7,4.11,0,2.21,1.73,3.84,5.21,3.84,5.1,0,8.17-2.09,8.17-7.36Z"/><path class="cls-1" d="M769.36,166.15c0-4,0-8.56-.08-12h17.17a72.71,72.71,0,0,1,.48,7.94c1.92-4.44,6.07-9.16,15.17-9v15.32c-9.6-.3-15.08,2.31-15.08,13.71v13.67H769.36Z"/><path class="cls-1" d="M857.34,137.13V183c0,4.26,0,9.4.11,12.83H840c-.19-1.17-.29-2.91-.37-4.26-2.73,3.32-5.7,5.4-13.26,5.4-11.91,0-19.79-9-19.79-21.76,0-14,10.31-22.11,21-22.11,7.43,0,10.66,2.3,12,3.79V137.13ZM824.7,175c0,5.82,2.68,10,7.81,10s7.64-3.77,7.64-10-2-10-7.58-10C827.23,165,824.7,169.52,824.7,175Z"/></g></g></svg>